<svg xmlns="http://www.w3.org/2000/svg" width="14.5" height="24" viewBox="0 0 14.5 24"><defs><style>.a{fill:#b5baf3;}.b{fill:#7984eb;}.c{fill:#979fef;}.d{fill:#6b77e8;}.e{fill:#fdbf00;}.f{fill:#ff9f00;}.g{fill:#ff7816;}</style></defs><g transform="translate(0.517 0)"><path class="a" d="M6.748,12.417,0,5.668V0H6.771V12.394l-.022.022h0Z" transform="translate(0 0)"/><path class="b" d="M6.748,0,0,6.748v5.668H6.771V.022L6.748,0h0Z" transform="translate(13.542 12.417) rotate(180)"/><path class="c" d="M4.371,8.042,0,3.671V0H4.393V8.019l-.022.022Z" transform="translate(2.378 0)"/><path class="d" d="M4.371,0,0,4.371V8.042H4.393V.022L4.371,0Z" transform="translate(11.164 8.042) rotate(180)"/></g><path class="e" d="M7.5,14.5H7.475a7.755,7.755,0,0,1-1.506-.147A7.559,7.559,0,0,1,3.3,13.262a7.484,7.484,0,0,1-1.106-.885A7.355,7.355,0,0,1,1.277,11.3a7.185,7.185,0,0,1-.689-1.232,7.062,7.062,0,0,1,0-5.644A7.185,7.185,0,0,1,1.277,3.2a7.355,7.355,0,0,1,.913-1.073A7.5,7.5,0,0,1,4.565.57a7.607,7.607,0,0,1,1.4-.422A7.755,7.755,0,0,1,7.475,0H7.5V14.5Z" transform="translate(0 9.5)"/><path class="f" d="M5.975,11.5a6.246,6.246,0,0,1-1.2-.117,6.116,6.116,0,0,1-1.121-.335,6.052,6.052,0,0,1-1.015-.53,5.974,5.974,0,0,1-.884-.7,5.846,5.846,0,0,1-.73-.851A5.686,5.686,0,0,1,.47,7.988a5.562,5.562,0,0,1,0-4.476,5.686,5.686,0,0,1,.551-.977,5.846,5.846,0,0,1,.73-.851,5.974,5.974,0,0,1,.884-.7A6.052,6.052,0,0,1,3.649.452,6.116,6.116,0,0,1,4.77.117,6.246,6.246,0,0,1,5.975,0H6V11.5H5.975Z" transform="translate(1.5 11)"/><path class="e" d="M1.337,7.5h0L1.8,4.768,0,2.865l2.45-.347L3.5,0V6.158L1.337,7.5Z" transform="translate(3.5 13)"/><path class="f" d="M7.5,0H7.475A7.755,7.755,0,0,0,5.968.147,7.559,7.559,0,0,0,3.3,1.238a7.484,7.484,0,0,0-1.106.885A7.355,7.355,0,0,0,1.277,3.2,7.185,7.185,0,0,0,.587,4.428a7.062,7.062,0,0,0,0,5.644A7.185,7.185,0,0,0,1.277,11.3a7.355,7.355,0,0,0,.913,1.073A7.5,7.5,0,0,0,4.565,13.93a7.607,7.607,0,0,0,1.4.422,7.755,7.755,0,0,0,1.506.147H7.5V0Z" transform="translate(14.5 24) rotate(180)"/><path class="g" d="M5.975,0a6.246,6.246,0,0,0-1.2.117A6.116,6.116,0,0,0,3.649.452a6.052,6.052,0,0,0-1.015.53,5.974,5.974,0,0,0-.884.7,5.846,5.846,0,0,0-.73.851,5.686,5.686,0,0,0-.551.977,5.562,5.562,0,0,0,0,4.476,5.686,5.686,0,0,0,.551.977,5.846,5.846,0,0,0,.73.851,5.974,5.974,0,0,0,.884.7,6.052,6.052,0,0,0,1.015.53,6.116,6.116,0,0,0,1.121.335,6.246,6.246,0,0,0,1.2.117H6V0H5.975Z" transform="translate(13 22.5) rotate(180)"/><path class="f" d="M1.337,0h0L1.8,2.732,0,4.635l2.45.347L3.5,7.5V1.342L1.337,0Z" transform="translate(11 20.5) rotate(180)"/></svg>