<svg xmlns="http://www.w3.org/2000/svg" width="58.531" height="64.5" viewBox="0 0 58.531 64.5"><defs><style>.a,.c{fill:#003049;}.a{stroke:rgba(0,0,0,0);stroke-miterlimit:10;}.b{fill:#f77f00;}</style></defs><g transform="translate(322.363 -1697.319)"><path class="a" d="M32.722,59.694H5.969A5.976,5.976,0,0,1,0,53.725L.03,11.939A5.955,5.955,0,0,1,1.757,7.723,5.882,5.882,0,0,1,5.969,5.969H8.954V2.985a2.985,2.985,0,0,1,5.97,0V5.969H38.8V2.985a2.985,2.985,0,0,1,5.969,0V5.969h2.985a5.977,5.977,0,0,1,5.97,5.97V38.692a15.261,15.261,0,0,0-5.97-1.884V20.893H5.969V50.74a2.988,2.988,0,0,0,2.985,2.985H30.838a15.258,15.258,0,0,0,1.883,5.968ZM23.877,41.786H14.924A2.988,2.988,0,0,1,11.939,38.8V29.847a2.988,2.988,0,0,1,2.985-2.985h8.954a2.988,2.988,0,0,1,2.985,2.985V38.8A2.988,2.988,0,0,1,23.877,41.786Z" transform="translate(-321.863 1697.819)"/><circle class="b" cx="11.841" cy="11.841" r="11.841" transform="translate(-287.514 1738.137)"/><path class="c" d="M757.563,511.695l.141.15a1.6,1.6,0,0,1-.031,2.227l-8.077,8.067a1.6,1.6,0,0,1-2.262-.006l-2.675-2.7a1.6,1.6,0,0,1,.065-2.311l.026-.023a1.6,1.6,0,0,1,2.3.175l1.214,1.483,6.991-7.093A1.6,1.6,0,0,1,757.563,511.695Z" transform="translate(-1026.842 1233.08)"/></g></svg>