<svg xmlns="http://www.w3.org/2000/svg" width="42.454" height="64" viewBox="0 0 42.454 64"><defs><style>.a{fill:#003049;}.b{fill:#f77f00;}</style></defs><g transform="translate(-1000.969 -422)"><path class="a" d="M1032.427,464.889c1.948-.6,3.471-.534,4.645.809,1.294,1.48,1.113,3.111.227,4.74,3.559.6,4.655,2.392,3.58,5.79q4.676,2.983.759,6.9-7.687,7.683-15.377,15.365c-1.334,1.332-1.67,1.335-3,0-4.594-4.582-9.16-9.191-13.789-13.738a5.42,5.42,0,0,1-1.654-3.164c-.8-4.943-1.7-9.869-2.487-14.814a7.019,7.019,0,0,0-2.07-4.085c-.44-.43-.878-.865-1.283-1.327-.906-1.032-1.4-2.167-.605-3.482a3.169,3.169,0,0,1,3.72-1.344,13.609,13.609,0,0,1,4.059,2.71,49.366,49.366,0,0,1,4.031,5.292c.417.571.724,1.22,1.113,1.812,1.674,2.545,2.437,2.626,4.547.517,5.058-5.055,10.1-10.129,15.2-15.14a6.159,6.159,0,0,1,2.6-1.57,3.777,3.777,0,0,1,4.413,2.021,3.987,3.987,0,0,1-.817,4.818c-2.19,2.23-4.418,4.423-6.627,6.634C1033.28,463.967,1032.969,464.314,1032.427,464.889Z" transform="translate(0 -20.065)"/><path class="b" d="M1026.46,587.631a7.891,7.891,0,0,1-.8,1.251c-1.146,1.2-2.343,2.344-3.5,3.529a1.584,1.584,0,0,1-2.572.048q-7.031-7.032-14.07-14.055a1.607,1.607,0,0,1-.019-2.585c1.177-1.167,2.361-2.327,3.515-3.516a1.564,1.564,0,0,1,2.56-.051q7.026,7.036,14.058,14.067A7.238,7.238,0,0,1,1026.46,587.631Z" transform="translate(-2.784 -107.095)"/><g transform="translate(1016.039 422)"><path class="b" d="M1055.421,433.935a1.421,1.421,0,0,1-1.421-1.421v-9.094a1.421,1.421,0,0,1,2.842,0v9.094A1.421,1.421,0,0,1,1055.421,433.935Z" transform="translate(-1054 -422)"/></g><g transform="translate(1004.299 426.173)"><g transform="translate(17.051 0)"><path class="b" d="M1073.1,445.542a1.421,1.421,0,0,1,0-2.009l6.43-6.43a1.421,1.421,0,1,1,2.009,2.009l-6.43,6.43A1.421,1.421,0,0,1,1073.1,445.542Z" transform="translate(-1072.686 -436.686)"/></g><g transform="translate(0 0)"><path class="b" d="M1021.542,445.542a1.421,1.421,0,0,0,0-2.009l-6.43-6.43a1.421,1.421,0,0,0-2.009,2.009l6.43,6.43A1.421,1.421,0,0,0,1021.542,445.542Z" transform="translate(-1012.686 -436.686)"/></g></g></g></svg>