<svg xmlns="http://www.w3.org/2000/svg" width="64" height="64" viewBox="0 0 64 64"><defs><style>.a{fill:#003049;}.b{fill:#f77f00;}</style></defs><g transform="translate(342 -1573)"><path class="a" d="M36.972.7a2,2,0,0,1,2.412.48l2.98,3.451a2,2,0,0,0,1.66.688l4.547-.333a2,2,0,0,1,2.045,1.366l1.432,4.329a2,2,0,0,0,1.27,1.27l4.329,1.432a2,2,0,0,1,1.366,2.045l-.333,4.547a2,2,0,0,0,.688,1.66l3.451,2.98a2,2,0,0,1,.48,2.412L61.252,31.1a2,2,0,0,0,0,1.8L63.3,36.972a2,2,0,0,1-.48,2.412l-3.451,2.98a2,2,0,0,0-.688,1.66l.333,4.547a2,2,0,0,1-1.366,2.045l-4.329,1.432a2,2,0,0,0-1.27,1.27l-1.432,4.329a2,2,0,0,1-2.045,1.366l-4.547-.333a2,2,0,0,0-1.66.688l-2.98,3.451a2,2,0,0,1-2.412.48L32.9,61.252a2,2,0,0,0-1.8,0L27.028,63.3a2,2,0,0,1-2.412-.48l-2.98-3.451a2,2,0,0,0-1.66-.688l-4.547.333a2,2,0,0,1-2.045-1.366l-1.432-4.329a2,2,0,0,0-1.27-1.27L6.352,50.616a2,2,0,0,1-1.366-2.045l.333-4.547a2,2,0,0,0-.688-1.66L1.18,39.384A2,2,0,0,1,.7,36.972L2.748,32.9a2,2,0,0,0,0-1.8L.7,27.028a2,2,0,0,1,.48-2.412l3.451-2.98a2,2,0,0,0,.688-1.66l-.333-4.547a2,2,0,0,1,1.366-2.045l4.329-1.432a2,2,0,0,0,1.27-1.27l1.432-4.329a2,2,0,0,1,2.045-1.366l4.547.333a2,2,0,0,0,1.66-.688l2.98-3.451A2,2,0,0,1,27.028.7L31.1,2.748a2,2,0,0,0,1.8,0Z" transform="translate(-342 1573)"/><path class="b" d="M1,31.956a1,1,0,0,1-1-1V10.8a1,1,0,0,1,1-1H6.385a1,1,0,0,1,1,1V30.956a1,1,0,0,1-1,1Zm12.38-.892a3.215,3.215,0,0,1-3.2-3.2V11.849a3.2,3.2,0,0,1,.93-2.26L19.983.711A2.384,2.384,0,0,1,23.364.695a2.417,2.417,0,0,1,.657,2.2L22.5,10.23h9.055a4.815,4.815,0,0,1,4.424,6.7l-5.225,12.2a3.228,3.228,0,0,1-2.949,1.94Z" transform="translate(-326.951 1586.56)"/></g></svg>