<svg xmlns="http://www.w3.org/2000/svg" width="52.449" height="64" viewBox="0 0 52.449 64"><defs><style>.a{fill:#f77f00;}.b{fill:#003049;}</style></defs><g transform="translate(-692 -438.683)"><path class="a" d="M751.664,485.654c-.229-5.634-.047-11.285-.055-16.928,0-.472-.037-.944-.069-1.4a.674.674,0,0,0-.458-.593.967.967,0,0,0-.248-.057c-6.847-.415-13.386-1.893-19.344-5.478a1.86,1.86,0,0,0-1.564.144A37.016,37.016,0,0,1,716.738,466c-1.97.315-3.958.518-6.079.775a.679.679,0,0,0-.6.673v1.379c0,6.059.044,12.119-.019,18.178a17.571,17.571,0,0,0,2.429,9.176c4.052,6.981,10.02,11.948,16.863,16.007a2.708,2.708,0,0,0,3.1-.047A49.827,49.827,0,0,0,746.613,500.1,21.129,21.129,0,0,0,751.664,485.654Z" transform="translate(-12.659 -15.715)"/><path class="b" d="M692.012,446.411a.678.678,0,0,1,.645-.676c2.8-.133,5.438-.184,8.056-.444,6.08-.6,11.731-2.394,16.569-6.325a1.727,1.727,0,0,1,1.622-.136c6.708,5.459,14.615,6.788,22.925,6.788.654,0,1.307,0,1.961.015l.039,0a.664.664,0,0,1,.578.668v1.48c0,7.428-.122,14.859.035,22.283a25.962,25.962,0,0,1-5.325,16.453,53.388,53.388,0,0,1-18.042,15.341,5.457,5.457,0,0,1-5.683.049c-8.666-4.747-16-10.874-20.774-19.7A21.7,21.7,0,0,1,692,471.6c.04-7.963.012-15.926.012-23.888ZM698,451.063a.679.679,0,0,0-.6.673v1.378c0,6.059.044,12.119-.019,18.177a17.571,17.571,0,0,0,2.429,9.176c4.052,6.981,10.02,11.948,16.863,16.007a2.708,2.708,0,0,0,3.1-.047,49.827,49.827,0,0,0,14.175-12.041,21.129,21.129,0,0,0,5.05-14.449c-.229-5.634-.047-11.285-.055-16.928,0-.472-.037-.944-.069-1.4a.674.674,0,0,0-.458-.593.969.969,0,0,0-.248-.057c-6.847-.415-13.385-1.893-19.344-5.478a1.859,1.859,0,0,0-1.564.144,37.02,37.02,0,0,1-13.187,4.659C702.109,450.6,700.121,450.806,698,451.063Z"/><path class="b" d="M767.647,512.075l.248.264a2.8,2.8,0,0,1-.054,3.907L753.67,530.4a2.8,2.8,0,0,1-3.969-.01l-4.693-4.734a2.8,2.8,0,0,1,.114-4.055l.046-.041a2.8,2.8,0,0,1,4.043.308l2.129,2.6,12.266-12.444A2.8,2.8,0,0,1,767.647,512.075Z" transform="translate(-36.62 -50.87)"/></g></svg>