<svg xmlns="http://www.w3.org/2000/svg" width="26" height="26" viewBox="0 0 26 26"><defs><style>.a{fill:none;}.b{fill:#195030;}</style></defs><g transform="translate(0.152 0.472)"><rect class="a" width="26" height="26" transform="translate(-0.152 -0.472)"/><rect class="a" width="26" height="26" transform="translate(-0.152 -0.472)"/><g transform="translate(3.213 1.275)"><path class="b" d="M10.072,3.144H14.36A1.072,1.072,0,0,0,14.36,1H10.072a1.072,1.072,0,0,0,0,2.144Z" transform="translate(-2.565 -1)"/><path class="b" d="M20.184,7.634l.8-.8a1.064,1.064,0,0,0,0-1.5l-.011-.011a1.064,1.064,0,0,0-1.5,0l-.8.8A9.607,9.607,0,0,0,12.648,4,9.755,9.755,0,0,0,3,13.391,9.65,9.65,0,1,0,20.184,7.634ZM13.72,13.648a1.072,1.072,0,0,1-2.144,0V9.36a1.072,1.072,0,0,1,2.144,0Z" transform="translate(-2.997 -0.784)"/></g></g></svg>