<svg width="17" height="17" viewBox="0 0 17 17" fill="none" xmlns="http://www.w3.org/2000/svg">
<path d="M7.43848 16.0667C11.5466 16.0667 14.877 12.4849 14.877 8.06665C14.877 3.64837 11.5466 0.0666504 7.43848 0.0666504C3.33032 0.0666504 0 3.64837 0 8.06665C0 12.4849 3.33032 16.0667 7.43848 16.0667Z" fill="#62B020"/>
<path d="M3.10566 7.27883C4.19513 8.09364 4.76491 8.23505 5.70412 9.93876C6.64332 11.6425 6.80611 12.8007 7.05657 13.0095C7.30076 13.2249 8.5405 12.9556 9.18542 12.5852C9.83034 12.2148 9.84913 12.0061 10.4502 10.4977C11.283 8.4034 12.6354 5.83775 13.6686 4.34953C14.7079 2.86132 16.8931 0.901721 16.9933 0.531351C17.0935 0.160981 16.0541 -0.014103 15.0648 0.302395C14.0755 0.618893 11.9905 3.08354 10.7382 5.02293C9.34196 7.17782 8.84732 8.996 8.59686 8.94212C8.35267 8.88825 7.86428 7.80408 7.17553 7.00947C6.48052 6.21485 5.75421 5.6694 4.91519 5.83101C4.06991 5.99263 2.60475 6.90172 3.10566 7.27883Z" fill="white"/>
</svg>
