<svg width="15" height="14" viewBox="0 0 15 14" fill="none" xmlns="http://www.w3.org/2000/svg">
<path d="M6.56337 14C10.1882 14 13.1267 10.866 13.1267 7C13.1267 3.13401 10.1882 0 6.56337 0C2.93852 0 0 3.13401 0 7C0 10.866 2.93852 14 6.56337 14Z" fill="#62B020"/>
<path d="M2.74028 6.31065C3.70158 7.02361 4.20433 7.14735 5.03304 8.63809C5.86174 10.1288 6.00539 11.1423 6.22637 11.325C6.44184 11.5135 7.53573 11.2778 8.10478 10.9537C8.67382 10.6297 8.6904 10.447 9.22077 9.12714C9.95556 7.29465 11.1489 5.0497 12.0605 3.74751C12.9776 2.44533 14.9057 0.730679 14.9941 0.406605C15.0825 0.0825314 14.1654 -0.0706669 13.2925 0.206269C12.4196 0.483205 10.5799 2.63977 9.47491 4.33674C8.2429 6.22226 7.80645 7.81317 7.58546 7.76603C7.37 7.7189 6.93906 6.77024 6.33134 6.07496C5.7181 5.37967 5.07724 4.9024 4.33692 5.04381C3.59109 5.18523 2.2983 5.98068 2.74028 6.31065Z" fill="white"/>
</svg>
