<svg xmlns="http://www.w3.org/2000/svg" xmlns:xlink="http://www.w3.org/1999/xlink" width="548" height="251.413" viewBox="0 0 548 251.413"><defs><style>.a{fill:rgba(255,255,255,0.2);stroke:rgba(254,254,254,0.3);}.b,.c,.d,.e,.f,.g,.h{fill:#fff;}.b{font-size:25px;}.b,.d,.e,.g{font-family:OpenSans-Bold, Open Sans;font-weight:700;}.c{font-size:14px;}.c,.f,.h{font-family:OpenSans, Open Sans;}.d{font-size:28px;}.e{font-size:35px;}.f{font-size:19px;}.g{font-size:22px;}.h{font-size:11px;}.i{stroke:none;}.j{fill:none;}.k{filter:url(#w);}.l{filter:url(#u);}.m{filter:url(#s);}.n{filter:url(#q);}.o{filter:url(#o);}.p{filter:url(#m);}.q{filter:url(#k);}.r{filter:url(#i);}.s{filter:url(#g);}.t{filter:url(#e);}.u{filter:url(#c);}.v{filter:url(#a);}</style><filter id="a" x="393.672" y="0" width="154.328" height="103.544" filterUnits="userSpaceOnUse"><feOffset dx="3" dy="3" input="SourceAlpha"/><feGaussianBlur stdDeviation="1" result="b"/><feFlood flood-opacity="0.251"/><feComposite operator="in" in2="b"/><feComposite in="SourceGraphic"/></filter><filter id="c" x="409.297" y="6.984" width="106.51" height="62.105" filterUnits="userSpaceOnUse"><feOffset dy="3" input="SourceAlpha"/><feGaussianBlur stdDeviation="3" result="d"/><feFlood flood-opacity="0.161"/><feComposite operator="in" in2="d"/><feComposite in="SourceGraphic"/></filter><filter id="e" x="402.82" y="41.963" width="124.533" height="49.655" filterUnits="userSpaceOnUse"><feOffset dy="3" input="SourceAlpha"/><feGaussianBlur stdDeviation="3" result="f"/><feFlood flood-opacity="0.161"/><feComposite operator="in" in2="f"/><feComposite in="SourceGraphic"/></filter><filter id="g" x="377.188" y="129.373" width="163.698" height="114.434" filterUnits="userSpaceOnUse"><feOffset dx="3" dy="3" input="SourceAlpha"/><feGaussianBlur stdDeviation="1" result="h"/><feFlood flood-opacity="0.251"/><feComposite operator="in" in2="h"/><feComposite in="SourceGraphic"/></filter><filter id="i" x="402.413" y="136.293" width="119.14" height="72.093" filterUnits="userSpaceOnUse"><feOffset dy="3" input="SourceAlpha"/><feGaussianBlur stdDeviation="3" result="j"/><feFlood flood-opacity="0.161"/><feComposite operator="in" in2="j"/><feComposite in="SourceGraphic"/></filter><filter id="k" x="395.485" y="177.338" width="110.917" height="52.513" filterUnits="userSpaceOnUse"><feOffset dy="3" input="SourceAlpha"/><feGaussianBlur stdDeviation="3" result="l"/><feFlood flood-opacity="0.161"/><feComposite operator="in" in2="l"/><feComposite in="SourceGraphic"/></filter><filter id="m" x="0" y="3.31" width="165.001" height="145.1" filterUnits="userSpaceOnUse"><feOffset dx="-3" dy="3" input="SourceAlpha"/><feGaussianBlur stdDeviation="1" result="n"/><feFlood flood-opacity="0.251"/><feComposite operator="in" in2="n"/><feComposite in="SourceGraphic"/></filter><filter id="o" x="29.079" y="18.033" width="115.805" height="82.685" filterUnits="userSpaceOnUse"><feOffset dy="3" input="SourceAlpha"/><feGaussianBlur stdDeviation="3" result="p"/><feFlood flood-opacity="0.161"/><feComposite operator="in" in2="p"/><feComposite in="SourceGraphic"/></filter><filter id="q" x="29.838" y="68.897" width="94.81" height="58.609" filterUnits="userSpaceOnUse"><feOffset dy="3" input="SourceAlpha"/><feGaussianBlur stdDeviation="3" result="r"/><feFlood flood-opacity="0.161"/><feComposite operator="in" in2="r"/><feComposite in="SourceGraphic"/></filter><filter id="s" x="28.563" y="159.587" width="147.579" height="91.826" filterUnits="userSpaceOnUse"><feOffset dx="-3" dy="3" input="SourceAlpha"/><feGaussianBlur stdDeviation="1" result="t"/><feFlood flood-opacity="0.251"/><feComposite operator="in" in2="t"/><feComposite in="SourceGraphic"/></filter><filter id="u" x="41.753" y="163.49" width="120.911" height="59.963" filterUnits="userSpaceOnUse"><feOffset dy="3" input="SourceAlpha"/><feGaussianBlur stdDeviation="3" result="v"/><feFlood flood-opacity="0.161"/><feComposite operator="in" in2="v"/><feComposite in="SourceGraphic"/></filter><filter id="w" x="66.789" y="198.093" width="71.44" height="39.225" filterUnits="userSpaceOnUse"><feOffset dy="3" input="SourceAlpha"/><feGaussianBlur stdDeviation="3" result="x"/><feFlood flood-opacity="0.161"/><feComposite operator="in" in2="x"/><feComposite in="SourceGraphic"/></filter></defs><g transform="translate(-748.506 -261.088)"><g transform="translate(1142.178 261.088)"><g class="v" transform="matrix(1, 0, 0, 1, -393.67, 0)"><g class="a" transform="translate(393.67 17) rotate(-7)"><rect class="i" width="139.478" height="81.151" rx="15"/><rect class="j" x="0.5" y="0.5" width="138.478" height="80.151" rx="14.5"/></g></g><g class="u" transform="matrix(1, 0, 0, 1, -393.67, 0)"><text class="b" transform="translate(421.59 50.14) rotate(-7)"><tspan x="0" y="0">1.000 +</tspan></text></g><g class="t" transform="matrix(1, 0, 0, 1, -393.67, 0)"><text class="c" transform="translate(413.65 75.65) rotate(-7)"><tspan x="0" y="0">Lowongan Kerja</tspan></text></g></g><g transform="translate(1118.58 392.367) rotate(-5)"><g class="s" transform="matrix(1, 0.09, -0.09, 1, -357.22, -163.03)"><g class="a" transform="translate(391.86 129.37) rotate(10)"><rect class="i" width="145.232" height="84.499" rx="17"/><rect class="j" x="0.5" y="0.5" width="144.232" height="83.499" rx="16.5"/></g></g><g class="r" transform="matrix(1, 0.09, -0.09, 1, -357.22, -163.03)"><text class="d" transform="translate(412.8 171.84) rotate(10)"><tspan x="0" y="0">1.000 +</tspan></text></g><g class="q" transform="matrix(1, 0.09, -0.09, 1, -357.22, -163.03)"><text class="c" transform="translate(405.18 198.11) rotate(10)"><tspan x="0" y="0">Berita Update</tspan></text></g></g><g transform="translate(754.506 264.398)"><g class="p" transform="matrix(1, 0, 0, 1, -6, -3.31)"><g class="a" transform="matrix(0.98, 0.21, -0.21, 0.98, 29.44, 3.31)"><rect class="i" width="138.588" height="112.749" rx="24"/><rect class="j" x="0.5" y="0.5" width="137.588" height="111.749" rx="23.5"/></g></g><g class="o" transform="matrix(1, 0, 0, 1, -6, -3.31)"><text class="e" transform="matrix(0.98, 0.21, -0.21, 0.98, 40.16, 60.22)"><tspan x="0" y="0">150 +</tspan></text></g><g class="n" transform="matrix(1, 0, 0, 1, -6, -3.31)"><text class="f" transform="matrix(0.98, 0.21, -0.21, 0.98, 40.09, 94.46)"><tspan x="0" y="0">Kampus</tspan></text></g></g><g transform="matrix(0.999, 0.035, -0.035, 0.999, 783.8, 416.054)"><g class="m" transform="matrix(1, -0.03, 0.03, 1, -40.68, -153.64)"><g class="a" transform="translate(34.56 175.92) rotate(-7)"><rect class="i" width="134.046" height="70.011" rx="15"/><rect class="j" x="0.5" y="0.5" width="133.046" height="69.011" rx="14.5"/></g></g><g class="l" transform="matrix(1, -0.03, 0.03, 1, -40.68, -153.64)"><text class="g" transform="translate(53.68 205.5) rotate(-7)"><tspan x="0" y="0">100.000 +</tspan></text></g><g class="k" transform="matrix(1, -0.03, 0.03, 1, -40.68, -153.64)"><text class="h" transform="translate(77.25 222.34) rotate(-7)"><tspan x="0" y="0">Pengguna</tspan></text></g></g></g></svg>