<svg width="394" height="265" viewBox="0 0 394 265" fill="none" xmlns="http://www.w3.org/2000/svg">
<g clip-path="url(#clip0_24_21)">
<path d="M70.6015 158.656C70.341 158.578 70.0747 158.521 69.8052 158.485L59.0464 136.527L62.3311 131.581L55.5475 125.626L47.0198 136.108L64.3876 161.496C63.9603 162.456 63.8342 163.525 64.026 164.559C64.2178 165.593 64.7184 166.543 65.4613 167.285C66.2042 168.026 67.1541 168.522 68.1848 168.708C69.2154 168.894 70.278 168.76 71.2311 168.324C72.1841 167.889 72.9826 167.172 73.5203 166.269C74.0579 165.367 74.3093 164.321 74.241 163.272C74.1726 162.222 73.7878 161.219 73.1377 160.394C72.4876 159.57 71.603 158.963 70.6015 158.656V158.656Z" fill="#A0616A"/>
<path d="M52.2354 128.66C52.3821 128.815 52.5502 128.948 52.7347 129.055L63.7426 135.465C64.0072 135.619 64.3007 135.716 64.6046 135.75C64.9085 135.785 65.2162 135.755 65.5083 135.664C65.8003 135.573 66.0703 135.422 66.3012 135.22C66.5321 135.019 66.7188 134.771 66.8496 134.494L72.2035 123.132C72.4313 122.654 72.4803 122.11 72.3417 121.598C72.203 121.087 71.8859 120.643 71.4482 120.347L64.6245 115.684C64.1984 115.393 63.6846 115.261 63.1717 115.31C62.6588 115.359 62.1791 115.586 61.8152 115.953L52.2775 125.566C51.8718 125.975 51.6405 126.527 51.6327 127.104C51.6248 127.682 51.841 128.24 52.2354 128.66H52.2354Z" fill="#CCCCCC"/>
<path d="M36.7792 254.483L42.5912 256.072L51.4568 234.311L42.8787 231.966L36.7792 254.483Z" fill="#A0616A"/>
<path d="M47.1946 255.539L35.9858 252.475L34.0656 259.564L52.3318 264.556C52.5839 263.625 52.6511 262.653 52.5294 261.696C52.4077 260.739 52.0995 259.816 51.6225 258.979C51.1455 258.141 50.5089 257.406 49.7492 256.816C48.9894 256.226 48.1214 255.792 47.1946 255.539V255.539Z" fill="#2F2E41"/>
<path d="M86.4649 258.938L92.4878 258.938L95.3535 235.602L86.4639 235.602L86.4649 258.938Z" fill="#A0616A"/>
<path d="M96.7903 257.209H85.1741V264.555H104.104C104.104 263.591 103.915 262.635 103.548 261.744C103.18 260.853 102.641 260.043 101.962 259.361C101.283 258.679 100.477 258.138 99.5893 257.768C98.7019 257.399 97.7508 257.209 96.7903 257.209Z" fill="#2F2E41"/>
<path d="M80.1187 107.938C73.4544 107.938 68.0518 102.511 68.0518 95.8171C68.0518 89.1232 73.4544 83.6967 80.1187 83.6967C86.783 83.6967 92.1855 89.1232 92.1855 95.8171C92.1855 102.511 86.783 107.938 80.1187 107.938Z" fill="#A0616A"/>
<path d="M86.8336 242.3H95.0647C95.6274 242.299 96.1686 242.083 96.5788 241.696C96.9889 241.309 97.2372 240.78 97.2734 240.216C99.7261 201.053 98.2914 172.96 92.7585 151.807C92.7343 151.714 92.7044 151.624 92.6689 151.535L92.2281 150.428C92.0652 150.015 91.7822 149.661 91.416 149.412C91.0499 149.163 90.6175 149.03 90.1752 149.032H73.249C72.93 149.031 72.6148 149.101 72.325 149.234C72.0352 149.368 71.7777 149.564 71.5703 149.807L69.2713 152.501C69.2265 152.554 69.1845 152.607 69.1441 152.664C58.7771 167.185 49.4865 195.574 38.7265 233.732C38.5676 234.287 38.6307 234.882 38.9022 235.39C39.1737 235.899 39.6322 236.281 40.18 236.455L49.0258 239.298C49.5336 239.459 50.082 239.431 50.5712 239.22C51.0603 239.008 51.4577 238.628 51.6911 238.147L74.646 190.325C74.8065 189.991 75.0699 189.717 75.3972 189.545C75.7245 189.373 76.0982 189.312 76.4632 189.369C76.8281 189.427 77.1647 189.602 77.4232 189.867C77.6818 190.132 77.8484 190.474 77.8986 190.841L84.6431 240.38C84.7172 240.911 84.9795 241.398 85.3818 241.75C85.7842 242.103 86.2996 242.298 86.8336 242.3V242.3Z" fill="#2F2E41"/>
<path d="M70.1992 152.699C70.2223 152.699 70.2453 152.698 70.2686 152.698L90.8288 152.046C91.3573 152.031 91.863 151.825 92.2534 151.467C92.6438 151.109 92.893 150.622 92.9554 150.094C95.5617 128.903 88.4138 123.226 85.2196 121.77C84.9527 121.649 84.7214 121.46 84.5482 121.223C84.375 120.986 84.2657 120.708 84.231 120.416L83.9546 118.195C83.9075 117.803 83.7566 117.43 83.5178 117.116C78.5097 110.6 71.6711 108.513 68.0405 107.849C67.746 107.796 67.4439 107.804 67.1524 107.872C66.8609 107.939 66.5862 108.066 66.3449 108.244C66.1036 108.421 65.9008 108.646 65.7488 108.905C65.5967 109.164 65.4987 109.451 65.4606 109.749L65.0465 112.939C65.0043 113.243 64.8835 113.531 64.696 113.773C54.2515 127.488 65.8872 147.738 68.3258 151.658C68.5251 151.976 68.8015 152.239 69.1291 152.421C69.4567 152.603 69.8248 152.698 70.1992 152.699Z" fill="#CCCCCC"/>
<path d="M55.7732 97.1817C58.4651 93.3745 61.6931 89.98 65.3562 87.1046C68.4014 84.7154 71.7911 82.6742 75.5308 81.6978C79.2707 80.7214 83.4007 80.8876 86.8127 82.7091C90.225 84.5305 93.7526 88.1495 93.7742 92.0306C93.7809 93.2775 93.4652 94.9644 92.2427 94.7486L91.8891 94.7958C88.9401 94.1975 85.9912 93.5992 83.0423 93.0009C81.7862 97.3791 80.5302 101.757 79.2743 106.135C79.0095 107.058 78.6545 108.09 77.7824 108.483C76.9611 108.854 76.0116 108.505 75.1806 108.156C75.0438 108.099 73.8695 105.451 73.8695 105.451C73.8401 105.369 73.7893 105.295 73.7222 105.239C73.6551 105.182 73.5743 105.145 73.488 105.131C73.4017 105.116 73.3132 105.125 73.2315 105.156C73.1498 105.188 73.0779 105.24 73.0232 105.309L72.3256 106.185C72.1923 106.352 72.0084 106.471 71.8017 106.524C71.595 106.577 71.3768 106.561 71.1799 106.479C66.3708 104.462 61.5617 102.446 56.7525 100.43C56.088 100.151 55.345 99.7869 55.1524 99.0898C54.9677 98.422 55.374 97.7468 55.7732 97.1817Z" fill="#2F2E41"/>
<path d="M0.491315 265H148.373C148.503 265 148.628 264.948 148.72 264.855C148.812 264.763 148.864 264.637 148.864 264.507C148.864 264.376 148.812 264.25 148.72 264.158C148.628 264.065 148.503 264.013 148.373 264.013H0.491315C0.361014 264.013 0.236057 264.065 0.14392 264.158C0.051783 264.25 1.39773e-05 264.376 1.39773e-05 264.507C1.39773e-05 264.637 0.051783 264.763 0.14392 264.855C0.236057 264.948 0.361014 265 0.491315 265Z" fill="#3F3D56"/>
<path d="M80.6634 188.098C80.9975 188.096 81.3225 187.988 81.5914 187.789L83.8278 186.157C84.0134 186.021 84.2372 185.948 84.4669 185.948C84.6967 185.948 84.9205 186.021 85.1061 186.157L87.3425 187.789C87.6122 187.986 87.937 188.092 88.2704 188.092C88.6038 188.092 88.9286 187.986 89.1983 187.789C89.468 187.592 89.6688 187.315 89.7719 186.996C89.8749 186.678 89.875 186.335 89.772 186.016L88.9177 183.376C88.8463 183.156 88.8461 182.92 88.9171 182.7C88.9881 182.481 89.1267 182.29 89.3128 182.154L91.5492 180.522C91.8189 180.325 92.0197 180.048 92.1227 179.729C92.2257 179.411 92.2257 179.068 92.1227 178.749C92.0196 178.431 91.8189 178.153 91.5491 177.956C91.2794 177.76 90.9546 177.654 90.6212 177.654H87.8569C87.6272 177.654 87.4033 177.581 87.2174 177.446C87.0315 177.31 86.8933 177.118 86.8226 176.899L85.9685 174.258C85.8655 173.94 85.6648 173.662 85.395 173.465C85.1253 173.268 84.8004 173.162 84.467 173.162C84.1336 173.162 83.8087 173.268 83.539 173.465C83.2693 173.662 83.0685 173.94 82.9655 174.258L82.1112 176.899C82.0406 177.118 81.9025 177.31 81.7166 177.446C81.5307 177.581 81.3068 177.654 81.0771 177.654H78.3128C77.9794 177.654 77.6546 177.76 77.3848 177.956C77.1151 178.153 76.9144 178.431 76.8114 178.749C76.7083 179.068 76.7083 179.411 76.8113 179.729C76.9143 180.048 77.1151 180.325 77.3848 180.522L79.6212 182.154C79.8073 182.29 79.9458 182.481 80.0168 182.7C80.0878 182.92 80.0876 183.156 80.0162 183.376L79.1619 186.016C79.0551 186.334 79.0533 186.679 79.1566 186.998C79.2599 187.317 79.4629 187.595 79.7355 187.789C80.0043 187.988 80.3293 188.096 80.6634 188.098V188.098Z" fill="#F9A826"/>
<path d="M72.1168 182.818C71.4851 182.373 70.9582 181.795 70.5733 181.123C70.1884 180.451 69.9547 179.703 69.8888 178.931C69.8229 178.159 69.9264 177.381 70.192 176.654C70.4575 175.926 70.8787 175.266 71.4258 174.719L67.6068 128.395L78.9775 129.966L79.1939 174.974C80.0469 175.958 80.511 177.223 80.4982 178.527C80.4853 179.832 79.9963 181.087 79.124 182.054C78.2517 183.021 77.0566 183.632 75.7651 183.773C74.4736 183.914 73.1755 183.575 72.1168 182.818V182.818Z" fill="#A0616A"/>
<path d="M66.8638 135.066C67.0768 135.066 67.2887 135.035 67.4929 134.974L79.6998 131.368C79.9932 131.281 80.2656 131.135 80.4996 130.937C80.7336 130.739 80.9242 130.495 81.0593 130.219C81.1945 129.943 81.2712 129.643 81.2847 129.336C81.2982 129.029 81.2482 128.722 81.1377 128.436L76.6203 116.714C76.4319 116.219 76.0725 115.808 75.6078 115.557C75.1431 115.306 74.6039 115.231 74.0888 115.346L66.0242 117.107C65.5208 117.217 65.0715 117.5 64.7538 117.908C64.4361 118.315 64.2699 118.821 64.2839 119.338L64.6591 132.905C64.6752 133.483 64.9143 134.031 65.3258 134.434C65.7373 134.837 66.2889 135.064 66.8638 135.066H66.8638Z" fill="#CCCCCC"/>
<path d="M181.758 192.952H390.561C391.473 192.951 392.347 192.586 392.992 191.939C393.636 191.291 393.999 190.413 394 189.497V126.825C393.999 125.909 393.636 125.031 392.992 124.384C392.347 123.736 391.473 123.372 390.561 123.371H181.758C180.846 123.372 179.972 123.736 179.327 124.384C178.683 125.031 178.32 125.909 178.319 126.825V189.497C178.32 190.413 178.683 191.291 179.327 191.939C179.972 192.586 180.846 192.951 181.758 192.952V192.952ZM390.561 124.358C391.212 124.358 391.837 124.619 392.297 125.081C392.758 125.544 393.017 126.171 393.017 126.825V189.497C393.017 190.151 392.758 190.779 392.297 191.241C391.837 191.704 391.212 191.964 390.561 191.965H181.758C181.107 191.964 180.482 191.704 180.022 191.241C179.561 190.779 179.302 190.151 179.302 189.497V126.825C179.302 126.171 179.561 125.544 180.022 125.081C180.482 124.619 181.107 124.358 181.758 124.358H390.561Z" fill="#3F3D56"/>
<path d="M299.191 219.341C299.6 219.339 299.999 219.207 300.328 218.963L303.068 216.963C303.295 216.797 303.569 216.707 303.851 216.707C304.132 216.707 304.406 216.797 304.634 216.963L307.373 218.963C307.704 219.204 308.102 219.334 308.51 219.334C308.919 219.334 309.316 219.204 309.647 218.963C309.977 218.722 310.223 218.382 310.349 217.991C310.476 217.601 310.476 217.181 310.35 216.791L309.303 213.556C309.216 213.287 309.215 212.997 309.302 212.729C309.389 212.46 309.559 212.225 309.787 212.06L312.527 210.06C312.857 209.819 313.103 209.479 313.229 209.089C313.356 208.699 313.356 208.279 313.229 207.888C313.103 207.498 312.857 207.158 312.527 206.917C312.196 206.676 311.798 206.546 311.39 206.546H308.003C307.722 206.547 307.448 206.457 307.22 206.291C306.992 206.125 306.823 205.891 306.737 205.622L305.69 202.387C305.564 201.996 305.318 201.656 304.988 201.415C304.657 201.174 304.259 201.044 303.851 201.044C303.442 201.044 303.044 201.174 302.714 201.415C302.383 201.656 302.137 201.996 302.011 202.387L300.965 205.622C300.878 205.891 300.709 206.125 300.481 206.291C300.254 206.457 299.979 206.547 299.698 206.546H296.311C295.903 206.546 295.505 206.676 295.175 206.917C294.844 207.158 294.598 207.498 294.472 207.888C294.346 208.279 294.346 208.699 294.472 209.089C294.598 209.479 294.844 209.819 295.175 210.06L297.914 212.06C298.142 212.225 298.312 212.46 298.399 212.729C298.486 212.997 298.486 213.287 298.398 213.556L297.352 216.791C297.221 217.181 297.219 217.602 297.345 217.994C297.472 218.385 297.72 218.725 298.054 218.963C298.384 219.207 298.782 219.339 299.191 219.341V219.341Z" fill="#F9A826"/>
<path d="M271.429 219.341C271.838 219.339 272.236 219.207 272.565 218.963L275.305 216.963C275.532 216.797 275.807 216.707 276.088 216.707C276.37 216.707 276.644 216.797 276.871 216.963L279.611 218.963C279.941 219.204 280.339 219.334 280.748 219.334C281.156 219.334 281.554 219.204 281.884 218.963C282.215 218.722 282.461 218.382 282.587 217.991C282.713 217.601 282.713 217.181 282.587 216.791L281.541 213.556C281.453 213.287 281.453 212.997 281.54 212.729C281.627 212.46 281.796 212.225 282.024 212.06L284.764 210.06C285.095 209.819 285.34 209.479 285.467 209.089C285.593 208.699 285.593 208.279 285.467 207.888C285.34 207.498 285.094 207.158 284.764 206.917C284.434 206.676 284.036 206.546 283.627 206.546H280.241C279.959 206.547 279.685 206.457 279.457 206.291C279.23 206.125 279.06 205.891 278.974 205.622L277.927 202.387C277.801 201.996 277.555 201.656 277.225 201.415C276.894 201.174 276.497 201.044 276.088 201.044C275.68 201.044 275.282 201.174 274.951 201.415C274.621 201.656 274.375 201.996 274.249 202.387L273.202 205.622C273.116 205.891 272.946 206.125 272.719 206.291C272.491 206.457 272.217 206.547 271.935 206.546H268.549C268.14 206.546 267.743 206.676 267.412 206.917C267.082 207.158 266.836 207.498 266.71 207.888C266.583 208.279 266.583 208.699 266.709 209.089C266.836 209.479 267.082 209.819 267.412 210.06L270.152 212.06C270.38 212.225 270.549 212.46 270.636 212.729C270.723 212.997 270.723 213.287 270.636 213.556L269.589 216.791C269.458 217.181 269.456 217.602 269.583 217.994C269.709 218.385 269.958 218.725 270.292 218.963C270.621 219.207 271.019 219.339 271.429 219.341V219.341Z" fill="#F9A826"/>
<path d="M243.666 219.341C244.075 219.339 244.473 219.207 244.803 218.963L247.542 216.963C247.77 216.797 248.044 216.707 248.325 216.707C248.607 216.707 248.881 216.797 249.108 216.963L251.848 218.963C252.179 219.204 252.576 219.334 252.985 219.334C253.393 219.334 253.791 219.204 254.122 218.963C254.452 218.722 254.698 218.382 254.824 217.991C254.95 217.601 254.95 217.181 254.824 216.791L253.778 213.556C253.69 213.287 253.69 212.997 253.777 212.729C253.864 212.46 254.034 212.225 254.262 212.06L257.001 210.06C257.332 209.819 257.578 209.479 257.704 209.089C257.83 208.699 257.83 208.279 257.704 207.888C257.578 207.498 257.332 207.158 257.001 206.917C256.671 206.676 256.273 206.546 255.865 206.546H252.478C252.197 206.547 251.922 206.457 251.695 206.291C251.467 206.125 251.298 205.891 251.211 205.622L250.165 202.387C250.039 201.996 249.793 201.656 249.462 201.415C249.132 201.174 248.734 201.044 248.325 201.044C247.917 201.044 247.519 201.174 247.189 201.415C246.858 201.656 246.612 201.996 246.486 202.387L245.439 205.622C245.353 205.891 245.184 206.125 244.956 206.291C244.728 206.457 244.454 206.547 244.173 206.546H240.786C240.378 206.546 239.98 206.676 239.649 206.917C239.319 207.158 239.073 207.498 238.947 207.888C238.821 208.279 238.821 208.699 238.947 209.089C239.073 209.479 239.319 209.819 239.649 210.06L242.389 212.06C242.617 212.225 242.787 212.46 242.874 212.729C242.961 212.997 242.96 213.287 242.873 213.556L241.826 216.791C241.696 217.181 241.693 217.602 241.82 217.993C241.946 218.385 242.195 218.724 242.529 218.963C242.858 219.207 243.257 219.339 243.666 219.341V219.341Z" fill="#F9A826"/>
<path d="M215.903 219.341C216.312 219.339 216.711 219.207 217.04 218.963L219.78 216.963C220.007 216.797 220.281 216.707 220.563 216.707C220.844 216.707 221.118 216.797 221.346 216.963L224.085 218.963C224.416 219.204 224.814 219.334 225.222 219.334C225.631 219.334 226.028 219.204 226.359 218.963C226.689 218.722 226.935 218.382 227.062 217.991C227.188 217.601 227.188 217.181 227.062 216.791L226.015 213.556C225.928 213.287 225.927 212.998 226.014 212.729C226.101 212.46 226.271 212.226 226.499 212.06L229.239 210.06C229.569 209.819 229.815 209.479 229.941 209.089C230.068 208.699 230.068 208.279 229.941 207.888C229.815 207.498 229.569 207.158 229.239 206.917C228.908 206.676 228.51 206.546 228.102 206.546H224.716C224.434 206.547 224.16 206.457 223.932 206.291C223.704 206.125 223.535 205.891 223.449 205.622L222.402 202.387C222.276 201.996 222.03 201.656 221.7 201.415C221.369 201.174 220.971 201.044 220.563 201.044C220.154 201.044 219.756 201.174 219.426 201.415C219.095 201.656 218.85 201.996 218.723 202.387L217.677 205.622C217.59 205.891 217.421 206.125 217.193 206.291C216.966 206.457 216.691 206.547 216.41 206.546H213.024C212.615 206.546 212.217 206.676 211.887 206.917C211.556 207.158 211.31 207.498 211.184 207.888C211.058 208.279 211.058 208.699 211.184 209.089C211.31 209.479 211.556 209.819 211.887 210.06L214.626 212.06C214.854 212.225 215.024 212.46 215.111 212.729C215.198 212.997 215.198 213.287 215.11 213.556L214.064 216.791C213.933 217.181 213.931 217.602 214.057 217.994C214.184 218.385 214.432 218.724 214.766 218.963C215.096 219.207 215.494 219.339 215.903 219.341V219.341Z" fill="#F9A826"/>
<path d="M197.46 219.532C197.909 219.531 198.346 219.385 198.708 219.117C199.075 218.856 199.348 218.483 199.487 218.053C199.626 217.623 199.624 217.16 199.48 216.731L198.434 213.497C198.359 213.266 198.358 213.018 198.433 212.788C198.507 212.557 198.653 212.357 198.848 212.214L201.588 210.215C201.951 209.95 202.221 209.577 202.36 209.148C202.499 208.719 202.499 208.258 202.36 207.829C202.221 207.401 201.951 207.027 201.588 206.762C201.225 206.497 200.788 206.355 200.339 206.355H196.953C196.712 206.355 196.477 206.279 196.281 206.136C196.086 205.994 195.941 205.793 195.867 205.562L194.82 202.327C194.682 201.899 194.412 201.525 194.049 201.261C193.686 200.996 193.249 200.853 192.8 200.853C192.351 200.853 191.914 200.996 191.551 201.261C191.188 201.525 190.918 201.899 190.78 202.327L189.733 205.562C189.659 205.793 189.514 205.994 189.319 206.136C189.124 206.279 188.889 206.355 188.647 206.355H185.261C184.812 206.355 184.375 206.498 184.012 206.762C183.649 207.027 183.379 207.401 183.24 207.829C183.102 208.258 183.102 208.719 183.24 209.148C183.379 209.577 183.649 209.95 184.012 210.215L186.752 212.214C186.947 212.356 187.093 212.557 187.167 212.788C187.242 213.018 187.242 213.266 187.167 213.497L186.12 216.731C185.982 217.16 185.982 217.622 186.12 218.05C186.259 218.479 186.529 218.852 186.892 219.117C187.255 219.382 187.692 219.525 188.141 219.525C188.589 219.525 189.026 219.382 189.389 219.117L192.129 217.118C192.324 216.975 192.559 216.898 192.8 216.898C193.041 216.898 193.276 216.975 193.471 217.118L196.211 219.117C196.573 219.385 197.01 219.531 197.46 219.532V219.532ZM192.8 215.911C192.351 215.911 191.914 216.054 191.552 216.319L188.812 218.319C188.617 218.461 188.382 218.538 188.141 218.538C187.9 218.538 187.665 218.461 187.47 218.319C187.274 218.177 187.129 217.976 187.055 217.745C186.98 217.515 186.98 217.267 187.055 217.037L188.101 213.802C188.241 213.373 188.241 212.911 188.102 212.482C187.964 212.054 187.693 211.68 187.329 211.416L184.59 209.416C184.395 209.274 184.25 209.073 184.175 208.843C184.101 208.613 184.101 208.365 184.175 208.134C184.25 207.904 184.395 207.703 184.59 207.561C184.785 207.418 185.02 207.342 185.261 207.342H188.647C189.096 207.343 189.534 207.2 189.897 206.935C190.26 206.67 190.53 206.296 190.668 205.867L191.714 202.633C191.789 202.402 191.934 202.201 192.129 202.059C192.324 201.917 192.559 201.84 192.8 201.84C193.041 201.84 193.276 201.917 193.471 202.059C193.666 202.201 193.812 202.402 193.886 202.633L194.933 205.867C195.071 206.296 195.34 206.67 195.704 206.935C196.067 207.2 196.504 207.343 196.953 207.342H200.339C200.58 207.342 200.815 207.418 201.011 207.561C201.206 207.703 201.351 207.904 201.425 208.134C201.5 208.365 201.5 208.613 201.425 208.843C201.351 209.073 201.206 209.274 201.011 209.416L198.271 211.416C197.907 211.68 197.637 212.054 197.498 212.482C197.359 212.911 197.36 213.373 197.499 213.802L198.546 217.037C198.62 217.267 198.62 217.515 198.546 217.745C198.471 217.976 198.326 218.176 198.131 218.319C197.936 218.461 197.701 218.538 197.46 218.538C197.219 218.538 196.984 218.461 196.789 218.319L194.049 216.319C193.686 216.054 193.249 215.911 192.8 215.911V215.911Z" fill="#3F3D56"/>
<path d="M366.978 138.175C367.825 138.175 368.638 138.513 369.237 139.115C369.835 139.716 370.172 140.532 370.172 141.383C370.172 142.233 369.835 143.049 369.237 143.651C368.638 144.252 367.825 144.59 366.978 144.59H205.34C204.494 144.59 203.681 144.252 203.082 143.651C202.483 143.049 202.147 142.233 202.147 141.383C202.147 140.532 202.483 139.716 203.082 139.115C203.681 138.513 204.494 138.175 205.34 138.175H366.978Z" fill="#CCCCCC"/>
<path d="M366.978 154.953C367.825 154.953 368.638 155.291 369.237 155.893C369.835 156.495 370.172 157.31 370.172 158.161C370.172 159.012 369.835 159.828 369.237 160.429C368.638 161.031 367.825 161.369 366.978 161.369H205.34C204.494 161.369 203.681 161.031 203.082 160.429C202.483 159.828 202.147 159.012 202.147 158.161C202.147 157.31 202.483 156.495 203.082 155.893C203.681 155.291 204.494 154.953 205.34 154.953H366.978Z" fill="#CCCCCC"/>
<path d="M366.978 171.732C367.825 171.732 368.638 172.07 369.237 172.671C369.835 173.273 370.172 174.089 370.172 174.939C370.172 175.79 369.835 176.606 369.237 177.208C368.638 177.809 367.825 178.147 366.978 178.147H205.34C204.494 178.147 203.681 177.809 203.082 177.208C202.483 176.606 202.147 175.79 202.147 174.939C202.147 174.089 202.483 173.273 203.082 172.671C203.681 172.07 204.494 171.732 205.34 171.732H366.978Z" fill="#CCCCCC"/>
<path d="M366.978 138.175C367.825 138.175 368.638 138.513 369.237 139.115C369.835 139.716 370.172 140.532 370.172 141.383C370.172 142.233 369.835 143.049 369.237 143.651C368.638 144.252 367.825 144.59 366.978 144.59H205.34C204.494 144.59 203.681 144.252 203.082 143.651C202.483 143.049 202.147 142.233 202.147 141.383C202.147 140.532 202.483 139.716 203.082 139.115C203.681 138.513 204.494 138.175 205.34 138.175H366.978Z" fill="#CCCCCC"/>
<path d="M366.978 154.953C367.825 154.953 368.638 155.291 369.237 155.893C369.835 156.495 370.172 157.31 370.172 158.161C370.172 159.012 369.835 159.828 369.237 160.429C368.638 161.031 367.825 161.369 366.978 161.369H205.34C204.494 161.369 203.681 161.031 203.082 160.429C202.483 159.828 202.147 159.012 202.147 158.161C202.147 157.31 202.483 156.495 203.082 155.893C203.681 155.291 204.494 154.953 205.34 154.953H366.978Z" fill="#CCCCCC"/>
<path d="M366.978 171.732C367.825 171.732 368.638 172.07 369.237 172.671C369.835 173.273 370.172 174.089 370.172 174.939C370.172 175.79 369.835 176.606 369.237 177.208C368.638 177.809 367.825 178.147 366.978 178.147H205.34C204.494 178.147 203.681 177.809 203.082 177.208C202.483 176.606 202.147 175.79 202.147 174.939C202.147 174.089 202.483 173.273 203.082 172.671C203.681 172.07 204.494 171.732 205.34 171.732H366.978Z" fill="#CCCCCC"/>
<path d="M181.758 69.581H390.561C391.473 69.58 392.347 69.2157 392.992 68.5681C393.636 67.9205 393.999 67.0425 394 66.1266V3.45438C393.999 2.53853 393.636 1.6605 392.992 1.0129C392.347 0.365299 391.473 0.00102794 390.561 0H181.758C180.846 0.00102663 179.972 0.365299 179.327 1.0129C178.683 1.6605 178.32 2.53853 178.319 3.45438V66.1266C178.32 67.0425 178.683 67.9205 179.327 68.5681C179.972 69.2157 180.846 69.58 181.758 69.581ZM390.561 0.986965C391.212 0.987722 391.837 1.24792 392.297 1.71049C392.758 2.17305 393.017 2.80021 393.017 3.45438V66.1266C393.017 66.7808 392.758 67.408 392.297 67.8705C391.837 68.3331 391.212 68.5933 390.561 68.594H181.758C181.107 68.5933 180.482 68.3331 180.022 67.8705C179.561 67.408 179.302 66.7808 179.302 66.1266V3.45438C179.302 2.80021 179.561 2.17305 180.022 1.71048C180.482 1.24791 181.107 0.987712 181.758 0.986965H390.561Z" fill="#3F3D56"/>
<path d="M299.191 95.9701C299.6 95.9684 299.999 95.836 300.328 95.592L303.068 93.5927C303.295 93.4259 303.569 93.3361 303.851 93.3361C304.132 93.3361 304.406 93.4259 304.634 93.5927L307.373 95.592C307.704 95.8331 308.102 95.963 308.51 95.963C308.919 95.963 309.316 95.8331 309.647 95.592C309.977 95.3509 310.223 95.011 310.349 94.6208C310.476 94.2307 310.476 93.8104 310.35 93.4203L309.303 90.1853C309.216 89.9166 309.215 89.6269 309.302 89.358C309.389 89.0891 309.559 88.8548 309.787 88.689L312.527 86.6897C312.857 86.4486 313.103 86.1086 313.229 85.7185C313.356 85.3283 313.356 84.908 313.229 84.5179C313.103 84.1277 312.857 83.7877 312.527 83.5465C312.196 83.3054 311.798 83.1755 311.39 83.1755H308.003C307.722 83.1761 307.448 83.0868 307.22 82.9207C306.992 82.7545 306.823 82.52 306.737 82.251L305.69 79.0161C305.564 78.6259 305.318 78.2858 304.988 78.0447C304.657 77.8035 304.259 77.6736 303.851 77.6736C303.442 77.6736 303.044 77.8035 302.714 78.0447C302.383 78.2858 302.137 78.6259 302.011 79.0161L300.965 82.251C300.878 82.52 300.709 82.7545 300.481 82.9207C300.254 83.0868 299.979 83.1761 299.698 83.1755H296.311C295.903 83.1756 295.505 83.3054 295.175 83.5466C294.844 83.7877 294.598 84.1277 294.472 84.5179C294.346 84.908 294.346 85.3283 294.472 85.7185C294.598 86.1086 294.844 86.4486 295.175 86.6897L297.914 88.689C298.142 88.8548 298.312 89.0891 298.399 89.358C298.486 89.6269 298.486 89.9166 298.398 90.1853L297.352 93.4203C297.221 93.81 297.219 94.2318 297.345 94.6229C297.472 95.0141 297.72 95.3539 298.054 95.592C298.384 95.836 298.782 95.9684 299.191 95.9701Z" fill="#F9A826"/>
<path d="M271.429 95.9701C271.838 95.9684 272.236 95.836 272.565 95.592L275.305 93.5927C275.532 93.4259 275.807 93.3361 276.088 93.3361C276.37 93.3361 276.644 93.4259 276.871 93.5927L279.611 95.592C279.941 95.8331 280.339 95.963 280.748 95.963C281.156 95.963 281.554 95.8331 281.884 95.592C282.215 95.3509 282.461 95.011 282.587 94.6208C282.713 94.2307 282.713 93.8104 282.587 93.4203L281.541 90.1853C281.453 89.9166 281.453 89.6269 281.54 89.358C281.627 89.0891 281.796 88.8548 282.024 88.689L284.764 86.6897C285.095 86.4486 285.34 86.1086 285.467 85.7184C285.593 85.3283 285.593 84.908 285.467 84.5178C285.34 84.1277 285.094 83.7877 284.764 83.5466C284.434 83.3054 284.036 83.1756 283.627 83.1755H280.241C279.959 83.1761 279.685 83.0868 279.457 82.9207C279.23 82.7545 279.06 82.52 278.974 82.251L277.927 79.0161C277.801 78.6259 277.555 78.2858 277.225 78.0446C276.894 77.8035 276.497 77.6736 276.088 77.6736C275.68 77.6736 275.282 77.8035 274.951 78.0446C274.621 78.2858 274.375 78.6259 274.249 79.0161L273.202 82.251C273.116 82.52 272.946 82.7545 272.719 82.9207C272.491 83.0868 272.217 83.1761 271.935 83.1755H268.549C268.14 83.1756 267.743 83.3054 267.412 83.5466C267.082 83.7877 266.836 84.1277 266.71 84.5178C266.583 84.908 266.583 85.3283 266.709 85.7184C266.836 86.1086 267.082 86.4486 267.412 86.6897L270.152 88.689C270.38 88.8548 270.549 89.089 270.636 89.3579C270.723 89.6269 270.723 89.9166 270.636 90.1853L269.589 93.4203C269.458 93.81 269.456 94.2318 269.583 94.6229C269.709 95.0141 269.958 95.3539 270.292 95.592C270.621 95.836 271.019 95.9684 271.429 95.9701V95.9701Z" fill="#F9A826"/>
<path d="M243.666 95.9701C244.075 95.9684 244.473 95.836 244.803 95.592L247.542 93.5927C247.77 93.4263 248.044 93.3367 248.325 93.3367C248.607 93.3367 248.881 93.4263 249.108 93.5927L251.848 95.592C252.179 95.8331 252.576 95.963 252.985 95.963C253.393 95.963 253.791 95.8332 254.122 95.592C254.452 95.3509 254.698 95.011 254.824 94.6208C254.95 94.2307 254.95 93.8104 254.824 93.4203L253.778 90.1853C253.69 89.9166 253.69 89.6269 253.777 89.358C253.864 89.0891 254.034 88.8548 254.262 88.689L257.001 86.6897C257.332 86.4486 257.578 86.1086 257.704 85.7184C257.83 85.3283 257.83 84.908 257.704 84.5178C257.578 84.1277 257.332 83.7877 257.001 83.5466C256.671 83.3054 256.273 83.1756 255.865 83.1755H252.478C252.197 83.1761 251.922 83.0868 251.695 82.9207C251.467 82.7545 251.298 82.52 251.211 82.251L250.165 79.0161C250.039 78.6259 249.793 78.2858 249.462 78.0446C249.132 77.8035 248.734 77.6736 248.325 77.6736C247.917 77.6736 247.519 77.8035 247.189 78.0446C246.858 78.2858 246.612 78.6259 246.486 79.0161L245.439 82.251C245.353 82.52 245.184 82.7545 244.956 82.9207C244.728 83.0868 244.454 83.1761 244.173 83.1755H240.786C240.378 83.1756 239.98 83.3054 239.649 83.5466C239.319 83.7877 239.073 84.1277 238.947 84.5178C238.821 84.908 238.821 85.3283 238.947 85.7184C239.073 86.1086 239.319 86.4486 239.649 86.6897L242.389 88.689C242.617 88.8548 242.787 89.0891 242.874 89.358C242.961 89.6269 242.96 89.9166 242.873 90.1853L241.826 93.4203C241.696 93.81 241.693 94.2317 241.82 94.6229C241.946 95.0141 242.195 95.3539 242.529 95.592C242.858 95.836 243.257 95.9684 243.666 95.9701V95.9701Z" fill="#F9A826"/>
<path d="M197.46 96.1618C197.909 96.16 198.346 96.0147 198.708 95.7469C199.075 95.4853 199.348 95.112 199.487 94.6822C199.626 94.2525 199.624 93.7892 199.48 93.3609L198.434 90.1261C198.359 89.8958 198.358 89.6475 198.433 89.4171C198.507 89.1867 198.653 88.986 198.848 88.8439L201.588 86.8445C201.951 86.5796 202.221 86.2061 202.36 85.7775C202.499 85.3489 202.499 84.8873 202.36 84.4587C202.221 84.0301 201.951 83.6566 201.588 83.3918C201.225 83.1269 200.788 82.9843 200.339 82.9843H196.953C196.712 82.9848 196.477 82.9082 196.281 82.7658C196.086 82.6234 195.941 82.4224 195.867 82.1918L194.82 78.9569C194.682 78.5283 194.412 78.1549 194.049 77.89C193.686 77.6251 193.249 77.4825 192.8 77.4825C192.351 77.4825 191.914 77.6251 191.551 77.89C191.188 78.1549 190.918 78.5283 190.78 78.9569L189.733 82.1918C189.659 82.4224 189.514 82.6234 189.319 82.7658C189.124 82.9082 188.889 82.9847 188.647 82.9843H185.261C184.812 82.9843 184.375 83.127 184.012 83.3919C183.649 83.6567 183.379 84.0302 183.24 84.4587C183.102 84.8873 183.102 85.3489 183.24 85.7775C183.379 86.2061 183.649 86.5796 184.012 86.8445L186.752 88.8439C186.947 88.9859 187.093 89.1866 187.167 89.4171C187.242 89.6475 187.242 89.8958 187.167 90.1261L186.12 93.3609C185.982 93.7895 185.982 94.2512 186.12 94.6797C186.259 95.1083 186.529 95.4818 186.892 95.7466C187.255 96.0115 187.692 96.1542 188.141 96.1542C188.589 96.1542 189.026 96.0115 189.389 95.7467L192.129 93.7474C192.324 93.6046 192.559 93.5277 192.8 93.5277C193.041 93.5277 193.276 93.6046 193.471 93.7474L196.211 95.7467C196.573 96.0147 197.01 96.1601 197.46 96.1618V96.1618ZM192.8 92.5402C192.351 92.5403 191.914 92.6834 191.552 92.9489L188.812 94.9481C188.617 95.0906 188.382 95.1673 188.141 95.1673C187.9 95.1674 187.665 95.0907 187.47 94.9484C187.274 94.806 187.129 94.6052 187.055 94.3749C186.98 94.1445 186.98 93.8964 187.055 93.666L188.101 90.4311C188.241 90.0026 188.241 89.5407 188.102 89.1119C187.964 88.6832 187.693 88.3097 187.329 88.0454L184.59 86.0459C184.395 85.9036 184.25 85.7029 184.175 85.4725C184.101 85.2422 184.101 84.9941 184.175 84.7637C184.25 84.5334 184.395 84.3327 184.59 84.1903C184.785 84.048 185.02 83.9713 185.261 83.9713H188.647C189.096 83.9721 189.534 83.8298 189.897 83.5648C190.26 83.2998 190.53 82.9259 190.668 82.4969L191.714 79.262C191.789 79.0316 191.934 78.8309 192.129 78.6885C192.324 78.5461 192.559 78.4694 192.8 78.4694C193.041 78.4694 193.276 78.5461 193.471 78.6885C193.666 78.8309 193.812 79.0316 193.886 79.262L194.933 82.4969C195.071 82.9259 195.34 83.2998 195.704 83.5648C196.067 83.8298 196.504 83.9721 196.953 83.9713H200.339C200.58 83.9713 200.815 84.0479 201.011 84.1903C201.206 84.3326 201.351 84.5334 201.425 84.7637C201.5 84.994 201.5 85.2421 201.425 85.4725C201.351 85.7028 201.206 85.9036 201.011 86.0459L198.271 88.0454C197.907 88.3098 197.637 88.6832 197.498 89.112C197.359 89.5407 197.36 90.0026 197.499 90.4311L198.546 93.666C198.62 93.8963 198.62 94.1445 198.546 94.3748C198.471 94.6051 198.326 94.8059 198.131 94.9482C197.936 95.0906 197.701 95.1672 197.46 95.1672C197.219 95.1672 196.984 95.0905 196.789 94.9481L194.049 92.9489C193.686 92.6834 193.249 92.5403 192.8 92.5402V92.5402Z" fill="#3F3D56"/>
<path d="M225.464 96.0825C225.913 96.0807 226.35 95.9354 226.712 95.6676C227.079 95.406 227.352 95.0327 227.491 94.6029C227.63 94.1732 227.628 93.7098 227.484 93.2816L226.438 90.0468C226.363 89.8165 226.362 89.5682 226.437 89.3378C226.512 89.1074 226.657 88.9067 226.852 88.7646L229.592 86.7651C229.955 86.5003 230.225 86.1268 230.364 85.6982C230.503 85.2696 230.503 84.808 230.364 84.3794C230.225 83.9508 229.955 83.5773 229.592 83.3125C229.229 83.0476 228.792 82.905 228.343 82.905H224.957C224.716 82.9055 224.481 82.829 224.285 82.6865C224.09 82.5441 223.945 82.3431 223.871 82.1125L222.825 78.8776C222.686 78.4491 222.416 78.0756 222.053 77.8107C221.69 77.5459 221.253 77.4032 220.804 77.4032C220.355 77.4032 219.918 77.5459 219.555 77.8107C219.192 78.0756 218.922 78.4491 218.784 78.8776L217.737 82.1125C217.663 82.3431 217.518 82.5441 217.323 82.6865C217.128 82.8289 216.893 82.9054 216.651 82.905H213.265C212.816 82.905 212.379 83.0477 212.016 83.3126C211.653 83.5774 211.383 83.9509 211.245 84.3795C211.106 84.808 211.106 85.2696 211.244 85.6982C211.383 86.1268 211.653 86.5003 212.016 86.7652L214.756 88.7646C214.951 88.9066 215.097 89.1073 215.171 89.3378C215.246 89.5682 215.246 89.8165 215.171 90.0468L214.124 93.2816C213.986 93.7102 213.986 94.1719 214.124 94.6004C214.263 95.029 214.533 95.4025 214.896 95.6673C215.259 95.9322 215.696 96.0749 216.145 96.0749C216.593 96.0749 217.03 95.9322 217.393 95.6674L220.133 93.6681C220.328 93.5253 220.563 93.4484 220.804 93.4484C221.045 93.4484 221.28 93.5253 221.475 93.6681L224.215 95.6674C224.577 95.9354 225.014 96.0808 225.464 96.0825V96.0825ZM220.804 92.4609C220.355 92.461 219.918 92.6041 219.556 92.8696L216.816 94.8688C216.621 95.0112 216.386 95.088 216.145 95.088C215.904 95.0881 215.669 95.0114 215.474 94.869C215.278 94.7267 215.133 94.5259 215.059 94.2956C214.984 94.0652 214.984 93.817 215.059 93.5867L216.105 90.3518C216.245 89.9233 216.245 89.4614 216.106 89.0326C215.968 88.6038 215.697 88.2304 215.333 87.9661L212.594 85.9666C212.399 85.8243 212.254 85.6235 212.179 85.3932C212.105 85.1629 212.105 84.9148 212.179 84.6844C212.254 84.4541 212.399 84.2534 212.594 84.111C212.789 83.9687 213.024 83.892 213.265 83.892H216.651C217.1 83.8928 217.538 83.7505 217.901 83.4855C218.264 83.2205 218.534 82.8466 218.672 82.4176L219.718 79.1827C219.793 78.9523 219.938 78.7516 220.133 78.6092C220.328 78.4668 220.563 78.3901 220.804 78.3901C221.045 78.3901 221.28 78.4668 221.475 78.6092C221.671 78.7516 221.816 78.9523 221.89 79.1827L222.937 82.4176C223.075 82.8466 223.345 83.2205 223.708 83.4855C224.071 83.7505 224.508 83.8928 224.957 83.892H228.343C228.585 83.892 228.819 83.9686 229.015 84.111C229.21 84.2533 229.355 84.454 229.429 84.6844C229.504 84.9147 229.504 85.1628 229.429 85.3932C229.355 85.6235 229.21 85.8243 229.015 85.9666L226.275 87.9661C225.911 88.2304 225.641 88.6039 225.502 89.0327C225.363 89.4614 225.364 89.9233 225.503 90.3518L226.55 93.5867C226.624 93.817 226.624 94.0651 226.55 94.2955C226.475 94.5258 226.33 94.7266 226.135 94.8689C225.94 95.0112 225.705 95.0879 225.464 95.0879C225.223 95.0879 224.988 95.0112 224.793 94.8688L222.053 92.8696C221.69 92.6041 221.253 92.461 220.804 92.4609V92.4609Z" fill="#3F3D56"/>
<path d="M366.978 14.8044C367.825 14.8044 368.638 15.1424 369.237 15.7439C369.835 16.3455 370.172 17.1614 370.172 18.0121C370.172 18.8628 369.835 19.6787 369.237 20.2802C368.638 20.8818 367.825 21.2197 366.978 21.2197H205.34C204.494 21.2197 203.681 20.8818 203.082 20.2802C202.483 19.6787 202.147 18.8628 202.147 18.0121C202.147 17.1614 202.483 16.3455 203.082 15.7439C203.681 15.1424 204.494 14.8044 205.34 14.8044H366.978Z" fill="#CCCCCC"/>
<path d="M366.978 31.5829C367.825 31.5829 368.638 31.9208 369.237 32.5224C369.835 33.1239 370.172 33.9398 370.172 34.7905C370.172 35.6412 369.835 36.4571 369.237 37.0587C368.638 37.6602 367.825 37.9982 366.978 37.9982H205.34C204.494 37.9982 203.681 37.6602 203.082 37.0587C202.483 36.4571 202.147 35.6412 202.147 34.7905C202.147 33.9398 202.483 33.1239 203.082 32.5224C203.681 31.9208 204.494 31.5829 205.34 31.5829H366.978Z" fill="#CCCCCC"/>
<path d="M366.978 48.3613C367.825 48.3613 368.638 48.6992 369.237 49.3008C369.835 49.9023 370.172 50.7182 370.172 51.5689C370.172 52.4196 369.835 53.2355 369.237 53.837C368.638 54.4386 367.825 54.7765 366.978 54.7765H205.34C204.494 54.7765 203.681 54.4386 203.082 53.837C202.483 53.2355 202.147 52.4196 202.147 51.5689C202.147 50.7182 202.483 49.9023 203.082 49.3008C203.681 48.6992 204.494 48.3613 205.34 48.3613H366.978Z" fill="#CCCCCC"/>
<path d="M366.978 14.8044C367.825 14.8044 368.638 15.1424 369.237 15.7439C369.835 16.3455 370.172 17.1614 370.172 18.0121C370.172 18.8628 369.835 19.6787 369.237 20.2802C368.638 20.8818 367.825 21.2197 366.978 21.2197H205.34C204.494 21.2197 203.681 20.8818 203.082 20.2802C202.483 19.6787 202.147 18.8628 202.147 18.0121C202.147 17.1614 202.483 16.3455 203.082 15.7439C203.681 15.1424 204.494 14.8044 205.34 14.8044H366.978Z" fill="#CCCCCC"/>
<path d="M366.978 31.5829C367.825 31.5829 368.638 31.9208 369.237 32.5224C369.835 33.1239 370.172 33.9398 370.172 34.7905C370.172 35.6412 369.835 36.4571 369.237 37.0587C368.638 37.6602 367.825 37.9982 366.978 37.9982H205.34C204.494 37.9982 203.681 37.6602 203.082 37.0587C202.483 36.4571 202.147 35.6412 202.147 34.7905C202.147 33.9398 202.483 33.1239 203.082 32.5224C203.681 31.9208 204.494 31.5829 205.34 31.5829H366.978Z" fill="#CCCCCC"/>
<path d="M366.978 48.3613C367.825 48.3613 368.638 48.6992 369.237 49.3008C369.835 49.9023 370.172 50.7182 370.172 51.5689C370.172 52.4196 369.835 53.2355 369.237 53.837C368.638 54.4386 367.825 54.7765 366.978 54.7765H205.34C204.494 54.7765 203.681 54.4386 203.082 53.837C202.483 53.2355 202.147 52.4196 202.147 51.5689C202.147 50.7182 202.483 49.9023 203.082 49.3008C203.681 48.6992 204.494 48.3613 205.34 48.3613H366.978Z" fill="#CCCCCC"/>
</g>
<defs>
<clipPath id="clip0_24_21">
<rect width="394" height="265" fill="white" transform="matrix(-1 0 0 1 394 0)"/>
</clipPath>
</defs>
</svg>
