<svg xmlns="http://www.w3.org/2000/svg" width="25.728" height="25.728" viewBox="0 0 25.728 25.728"><defs><style>.a{fill:none;}.b{fill:#195030;}</style></defs><path class="a" d="M0,0H25.728V25.728H0Z"/><g transform="translate(4.288 2.144)"><path class="b" d="M20.52,7.8,15.342,2.622A2.142,2.142,0,0,0,13.83,2H6.144A2.141,2.141,0,0,0,4.011,4.144L4,21.3A2.141,2.141,0,0,0,6.133,23.44H19.008A2.15,2.15,0,0,0,21.152,21.3V9.322A2.151,2.151,0,0,0,20.52,7.8ZM10.679,18.391,8.406,16.118a1.068,1.068,0,0,1,0-1.512h0a1.068,1.068,0,0,1,1.512,0l1.512,1.512,3.795-3.795a1.068,1.068,0,0,1,1.512,0h0a1.068,1.068,0,0,1,0,1.512L12.19,18.38A1.058,1.058,0,0,1,10.679,18.391ZM14.72,9.5a1.075,1.075,0,0,1-1.072-1.072V3.608l5.9,5.9Z" transform="translate(-4 -2)"/></g></svg>