<svg xmlns="http://www.w3.org/2000/svg" width="24" height="24" viewBox="0 0 24 24"><defs><style>.a{fill:none;}.b{fill:#fff;}</style></defs><rect class="a" width="24" height="24"/><rect class="a" width="24" height="24"/><g transform="translate(2.997 1)"><path class="b" d="M10,3h4a1,1,0,0,0,0-2H10a1,1,0,0,0,0,2Z" transform="translate(-2.997 -1)"/><path class="b" d="M19.03,7.39l.75-.75a.993.993,0,0,0,0-1.4l-.01-.01a.993.993,0,0,0-1.4,0l-.75.75A8.962,8.962,0,0,0,12,4a9.1,9.1,0,0,0-9,8.76A9,9,0,1,0,19.03,7.39ZM13,13a1,1,0,0,1-2,0V9a1,1,0,0,1,2,0Z" transform="translate(-2.997 -1)"/></g></svg>