<svg xmlns="http://www.w3.org/2000/svg" width="19" height="19" viewBox="0 0 19 19"><defs><style>.a{fill:none;}.b{opacity:0.3;}</style></defs><rect class="a" width="19" height="19"/><g transform="translate(1.583 3.167)"><path class="b" d="M4.792,10A.794.794,0,0,0,4,10.792v5.542a.792.792,0,0,0,1.583,0V10.792A.794.794,0,0,0,4.792,10Z" transform="translate(-2.417 -5.25)"/><rect class="b" width="5" height="2" transform="translate(6.417 1.833)"/><path class="b" d="M16.708,11H8v5.542h9.5v-4.75A.794.794,0,0,0,16.708,11Zm-4.75,4.75H8.792V11.792h3.167Zm1.583,0a.792.792,0,1,1,.792-.792A.794.794,0,0,1,13.542,15.75Zm0-2.375a.792.792,0,1,1,.792-.792A.794.794,0,0,1,13.542,13.375Zm2.375,2.375a.792.792,0,1,1,.792-.792A.794.794,0,0,1,15.917,15.75Zm0-2.375a.792.792,0,1,1,.792-.792A.794.794,0,0,1,15.917,13.375Z" transform="translate(-3.25 -5.458)"/><path d="M15.458,7.958h-.792V4H6.75V7.958H6.132A2.366,2.366,0,0,0,2,9.542v5.542a2.366,2.366,0,0,0,4.133,1.583h11.7V10.333A2.372,2.372,0,0,0,15.458,7.958ZM5.167,15.083a.792.792,0,1,1-1.583,0V9.542a.792.792,0,1,1,1.583,0Zm3.167-9.5h4.75V7.958H8.333Zm7.917,9.5H6.75V9.542h8.708a.794.794,0,0,1,.792.792Z" transform="translate(-2 -4)"/><ellipse cx="1" cy="0.5" rx="1" ry="0.5" transform="translate(9.417 6.833)"/><ellipse cx="1" cy="0.5" rx="1" ry="0.5" transform="translate(11.417 6.833)"/><ellipse cx="1" cy="0.5" rx="1" ry="0.5" transform="translate(9.417 8.833)"/><ellipse cx="1" cy="0.5" rx="1" ry="0.5" transform="translate(11.417 8.833)"/><g transform="translate(5.542 6.333)"><rect width="3" height="3" transform="translate(-0.125 0.5)"/></g></g></svg>