<svg xmlns="http://www.w3.org/2000/svg" xmlns:xlink="http://www.w3.org/1999/xlink" width="29.243" height="29.243" viewBox="0 0 29.243 29.243"><defs><style>.a{fill:url(#a);}.b{fill:#fff;}</style><linearGradient id="a" x1="4.912" y1="-4.385" x2="5.759" y2="-3.539" gradientUnits="objectBoundingBox"><stop offset="0" stop-color="#4676ed"/><stop offset="0.185" stop-color="#436de4"/><stop offset="0.487" stop-color="#3b54cd"/><stop offset="0.865" stop-color="#2f2da8"/><stop offset="1" stop-color="#2b1e99"/></linearGradient></defs><path class="a" d="M34.717,80.7V66.752a7.672,7.672,0,0,1,7.65-7.649H56.311a7.671,7.671,0,0,1,7.649,7.649V80.7a7.672,7.672,0,0,1-7.649,7.65H51.623l-2.454-.6-2.115.6H42.367A7.672,7.672,0,0,1,34.717,80.7Z" transform="translate(-34.717 -59.103)"/><g transform="translate(8.625 6.191)"><path class="b" d="M55.03,78.431l.648-4.227H51.623V71.462a2.114,2.114,0,0,1,2.383-2.284H55.85v-3.6a22.466,22.466,0,0,0-3.273-.286c-3.34,0-5.523,2.025-5.523,5.689V74.2H43.342v4.227h3.712v9.915h4.569V78.431Z" transform="translate(-43.342 -65.294)"/></g></svg>