<svg xmlns="http://www.w3.org/2000/svg" xmlns:xlink="http://www.w3.org/1999/xlink" width="29.243" height="29.243" viewBox="0 0 29.243 29.243"><defs><style>.a{fill:url(#a);}.b{fill:#fff;}</style><linearGradient id="a" x1="4.417" y1="-5.516" x2="5.71" y2="-4.223" gradientUnits="objectBoundingBox"><stop offset="0.001" stop-color="#fbe18a"/><stop offset="0.209" stop-color="#fcbb45"/><stop offset="0.376" stop-color="#f75274"/><stop offset="0.524" stop-color="#d53692"/><stop offset="0.739" stop-color="#8f39ce"/><stop offset="1" stop-color="#5b4fe9"/></linearGradient></defs><rect class="a" width="29.243" height="29.243" rx="7.649" transform="translate(29.243 0) rotate(90)"/><g transform="translate(6.049 6.049)"><path class="b" d="M96.347,68.713a1.006,1.006,0,1,0,1,1.005A1.005,1.005,0,0,0,96.347,68.713Z" transform="translate(-83.236 -65.652)"/><path class="b" d="M91.878,70A4.222,4.222,0,1,0,96.1,74.224,4.227,4.227,0,0,0,91.878,70Zm0,6.927a2.7,2.7,0,1,1,2.705-2.705A2.707,2.707,0,0,1,91.878,76.929Z" transform="translate(-83.236 -65.652)"/><path class="b" d="M95.23,82.8H88.386a5.155,5.155,0,0,1-5.15-5.149V70.8a5.155,5.155,0,0,1,5.15-5.15H95.23a5.156,5.156,0,0,1,5.15,5.15v6.845A5.156,5.156,0,0,1,95.23,82.8ZM88.386,67.265A3.541,3.541,0,0,0,84.849,70.8v6.845a3.54,3.54,0,0,0,3.537,3.536H95.23a3.541,3.541,0,0,0,3.537-3.536V70.8a3.541,3.541,0,0,0-3.537-3.537Z" transform="translate(-83.236 -65.652)"/></g></svg>