<svg xmlns="http://www.w3.org/2000/svg" xmlns:xlink="http://www.w3.org/1999/xlink" width="29.243" height="29.243" viewBox="0 0 29.243 29.243"><defs><style>.a{fill:url(#a);}.b{fill:#fff;}</style><linearGradient id="a" x1="5.531" y1="-5.855" x2="6.378" y2="-5.008" gradientUnits="objectBoundingBox"><stop offset="0" stop-color="red"/><stop offset="1" stop-color="#850000"/></linearGradient></defs><rect class="a" width="29.243" height="29.243" rx="7.649" transform="translate(29.243 0) rotate(90)"/><path class="b" d="M99.636,114.582a3.511,3.511,0,0,0-3.511-3.511H87.147a3.511,3.511,0,0,0-3.511,3.511v4.178a3.511,3.511,0,0,0,3.511,3.511h8.978a3.511,3.511,0,0,0,3.511-3.511Zm-5.28,2.4-4.026,1.992c-.158.085-.694-.029-.694-.208v-4.089c0-.182.541-.3.7-.206l3.853,2.1C94.35,116.662,94.52,116.9,94.356,116.984Z" transform="translate(-77.187 -102.087)"/></svg>