<svg xmlns="http://www.w3.org/2000/svg" width="19" height="19" viewBox="0 0 19 19"><defs><style>.a{fill:none;}.b{opacity:0.3;}</style></defs><path class="a" d="M0,0H19V19H0Z"/><path class="b" d="M16.09,14.872a11.312,11.312,0,0,1-2.058-.356l-.942.942a11.46,11.46,0,0,0,3.008.594v-1.18ZM5.03,5a12.213,12.213,0,0,0,.594,3.008l.95-.95A10.454,10.454,0,0,1,6.225,5H5.03Z" transform="translate(-1.048 -1.042)"/><path d="M7.805,6.618a8.994,8.994,0,0,1-.451-2.826A.794.794,0,0,0,6.563,3H3.792A.794.794,0,0,0,3,3.792,13.457,13.457,0,0,0,16.458,17.25a.794.794,0,0,0,.792-.792V13.7a.794.794,0,0,0-.792-.792,9.031,9.031,0,0,1-2.826-.451.665.665,0,0,0-.245-.04.811.811,0,0,0-.562.23l-1.742,1.742A11.993,11.993,0,0,1,5.866,9.167L7.608,7.425a.794.794,0,0,0,.2-.808Zm5.8,7.481a10.1,10.1,0,0,0,2.058.356v1.18a12.213,12.213,0,0,1-3.008-.594Zm-8.4-6.508a11.866,11.866,0,0,1-.6-3.008H5.795a10.292,10.292,0,0,0,.364,2.05Z" transform="translate(-0.625 -0.625)"/></svg>