<svg xmlns="http://www.w3.org/2000/svg" width="19" height="19" viewBox="0 0 19 19"><defs><style>.a{fill:none;}.b{opacity:0.3;}</style></defs><path class="a" d="M0,0H19V19H0Z"/><path class="b" d="M7,4h7.917V15.083H7Z" transform="translate(-1.458 -0.833)"/><path d="M13.708,1H7.375A2.372,2.372,0,0,0,5,3.375V16.042a2.372,2.372,0,0,0,2.375,2.375h6.333a2.372,2.372,0,0,0,2.375-2.375V3.375A2.372,2.372,0,0,0,13.708,1ZM12.125,16.833H8.958v-.792h3.167ZM14.5,14.458H6.583V3.375H14.5Z" transform="translate(-1.042 -0.208)"/></svg>